<svg width="204" height="46" viewBox="0 0 204 46" fill="none" xmlns="http://www.w3.org/2000/svg">
<path d="M15.74 35.6C12.7 35.6 10.02 35.0133 7.7 33.84C5.40667 32.6667 3.63333 30.9867 2.38 28.8C1.12667 26.5867 0.5 24 0.5 21.04C0.5 18.08 1.12667 15.5067 2.38 13.32C3.63333 11.1067 5.40667 9.41333 7.7 8.24C10.02 7.04 12.7 6.44 15.74 6.44C17.74 6.44 19.5267 6.64 21.1 7.04C22.6733 7.44 24.1267 8.06667 25.46 8.92V15.64C24.2867 14.7067 22.9533 14.0267 21.46 13.6C19.9933 13.1733 18.3 12.96 16.38 12.96C13.6333 12.96 11.5133 13.68 10.02 15.12C8.52667 16.5333 7.78 18.5067 7.78 21.04C7.78 23.5733 8.52667 25.56 10.02 27C11.54 28.44 13.66 29.16 16.38 29.16C18.3 29.16 20.02 28.9333 21.54 28.48C23.06 28.0267 24.4733 27.3067 25.78 26.32V33C23.2467 34.7333 19.9 35.6 15.74 35.6ZM38.59 35.6C36.2167 35.6 34.1367 35.1733 32.35 34.32C30.5633 33.44 29.1767 32.24 28.19 30.72C27.23 29.1733 26.75 27.4 26.75 25.4C26.75 23.4 27.23 21.64 28.19 20.12C29.1767 18.5733 30.5633 17.3733 32.35 16.52C34.1367 15.64 36.2167 15.2 38.59 15.2C40.9633 15.2 43.0433 15.64 44.83 16.52C46.6167 17.3733 47.99 18.5733 48.95 20.12C49.9367 21.64 50.43 23.4 50.43 25.4C50.43 27.4 49.9367 29.1733 48.95 30.72C47.99 32.24 46.6167 33.44 44.83 34.32C43.0433 35.1733 40.9633 35.6 38.59 35.6ZM38.59 30.12C40.0033 30.12 41.1233 29.7067 41.95 28.88C42.8033 28.0267 43.23 26.8667 43.23 25.4C43.23 23.9333 42.8033 22.7867 41.95 21.96C41.1233 21.1067 40.0033 20.68 38.59 20.68C37.1767 20.68 36.0433 21.1067 35.19 21.96C34.3633 22.7867 33.95 23.9333 33.95 25.4C33.95 26.8667 34.3633 28.0267 35.19 28.88C36.0433 29.7067 37.1767 30.12 38.59 30.12ZM53.2141 15.8H60.0141V17.92C60.8407 17.0133 61.8407 16.3333 63.0141 15.88C64.1874 15.4267 65.4141 15.2 66.6941 15.2C69.3874 15.2 71.3741 15.9067 72.6541 17.32C73.9607 18.7067 74.6141 20.6 74.6141 23V35H67.5741V23.92C67.5741 21.76 66.5874 20.68 64.6141 20.68C63.7074 20.68 62.8807 20.8933 62.1341 21.32C61.3874 21.72 60.7607 22.3467 60.2541 23.2V35H53.2141V15.8ZM86.3388 35.6C83.9654 35.6 82.1654 34.9467 80.9388 33.64C79.7388 32.3067 79.1388 30.4933 79.1388 28.2V20.68H76.4188V15.8H79.1388V10.04H86.1788V15.8H90.5788V20.68H86.1788V27.24C86.1788 28.28 86.3654 29.0267 86.7388 29.48C87.1388 29.9333 87.8321 30.16 88.8188 30.16C89.6988 30.16 90.5788 29.92 91.4588 29.44V34.68C90.7654 35 90.0188 35.2267 89.2188 35.36C88.4454 35.52 87.4854 35.6 86.3388 35.6ZM97.2084 13.24C96.1418 13.24 95.2484 12.8933 94.5284 12.2C93.8084 11.5067 93.4484 10.6267 93.4484 9.56C93.4484 8.52 93.8084 7.65333 94.5284 6.96C95.2484 6.24 96.1418 5.88 97.2084 5.88C98.2484 5.88 99.1284 6.24 99.8484 6.96C100.595 7.65333 100.968 8.52 100.968 9.56C100.968 10.6 100.595 11.48 99.8484 12.2C99.1284 12.8933 98.2484 13.24 97.2084 13.24ZM93.6884 15.8H100.728V35H93.6884V15.8ZM115.021 44.2C113.741 44.2 112.448 44.08 111.141 43.84C109.861 43.6 108.755 43.28 107.821 42.88V38C109.928 38.9067 112.328 39.36 115.021 39.36C116.968 39.36 118.368 38.96 119.221 38.16C120.101 37.36 120.541 36.1867 120.541 34.64V33.48C119.768 34.1467 118.808 34.6667 117.661 35.04C116.541 35.4133 115.341 35.6 114.061 35.6C112.035 35.6 110.248 35.1733 108.701 34.32C107.155 33.4667 105.941 32.2667 105.061 30.72C104.208 29.1733 103.781 27.4 103.781 25.4C103.781 23.3733 104.208 21.5867 105.061 20.04C105.915 18.4933 107.115 17.3067 108.661 16.48C110.208 15.6267 111.981 15.2 113.981 15.2C116.728 15.2 118.995 16.04 120.781 17.72V15.8H127.581V33.68C127.581 37.0133 126.555 39.6 124.501 41.44C122.475 43.28 119.315 44.2 115.021 44.2ZM115.821 30.16C116.915 30.16 117.888 29.88 118.741 29.32C119.595 28.76 120.195 28.0133 120.541 27.08V23.72C120.168 22.7867 119.555 22.0533 118.701 21.52C117.848 20.96 116.888 20.68 115.821 20.68C114.381 20.68 113.221 21.1067 112.341 21.96C111.461 22.7867 111.021 23.92 111.021 25.36C111.021 26.8267 111.461 28 112.341 28.88C113.221 29.7333 114.381 30.16 115.821 30.16ZM138.903 35.6C136.263 35.6 134.276 34.8667 132.943 33.4C131.636 31.9333 130.983 30 130.983 27.6V15.8H138.023V26.8C138.023 29.0133 139.023 30.12 141.023 30.12C141.929 30.12 142.756 29.9067 143.503 29.48C144.249 29.0533 144.863 28.4267 145.343 27.6V15.8H152.383V35H145.583V32.92C144.756 33.8 143.756 34.4667 142.583 34.92C141.409 35.3733 140.183 35.6 138.903 35.6ZM159.748 13.24C158.681 13.24 157.788 12.8933 157.068 12.2C156.348 11.5067 155.988 10.6267 155.988 9.56C155.988 8.52 156.348 7.65333 157.068 6.96C157.788 6.24 158.681 5.88 159.748 5.88C160.788 5.88 161.668 6.24 162.388 6.96C163.134 7.65333 163.508 8.52 163.508 9.56C163.508 10.6 163.134 11.48 162.388 12.2C161.668 12.8933 160.788 13.24 159.748 13.24ZM156.228 15.8H163.268V35H156.228V15.8ZM175.44 35.6C173.067 35.6 171.267 34.9467 170.04 33.64C168.84 32.3067 168.24 30.4933 168.24 28.2V20.68H165.52V15.8H168.24V10.04H175.28V15.8H179.68V20.68H175.28V27.24C175.28 28.28 175.467 29.0267 175.84 29.48C176.24 29.9333 176.934 30.16 177.92 30.16C178.8 30.16 179.68 29.92 180.56 29.44V34.68C179.867 35 179.12 35.2267 178.32 35.36C177.547 35.52 176.587 35.6 175.44 35.6ZM186.868 42.92C186.015 42.92 185.122 42.8533 184.188 42.72C183.255 42.6133 182.562 42.4533 182.108 42.24V37C182.882 37.32 183.762 37.48 184.748 37.48C185.628 37.48 186.308 37.28 186.788 36.88C187.295 36.5067 187.695 35.9067 187.988 35.08L188.468 33.8L180.148 15.8H187.188L192.188 28.28L196.908 15.8H203.948L196.028 35.88C195.095 38.28 193.895 40.0533 192.428 41.2C190.988 42.3467 189.135 42.92 186.868 42.92Z" fill="black"/>
</svg>
